<svg width="24" height="24" viewBox="0 0 24 24" fill="none" xmlns="http://www.w3.org/2000/svg">
<g id="vuesax/outline/arrow-up">
<g id="vuesax/outline/arrow-up_2">
<g id="arrow-up">
<path id="Vector" d="M13.6796 18.0701C13.6796 17.8801 13.7496 17.6901 13.8996 17.5401L19.4396 12.0001L13.8996 6.46012C13.6096 6.17012 13.6096 5.69012 13.8996 5.40012C14.1896 5.11012 14.6696 5.11012 14.9596 5.40012L21.0296 11.4701C21.3196 11.7601 21.3196 12.2401 21.0296 12.5301L14.9596 18.6001C14.6696 18.8901 14.1896 18.8901 13.8996 18.6001C13.7496 18.4601 13.6796 18.2601 13.6796 18.0701Z" fill="#FF5722"/>
<path id="Vector_2" d="M2.75008 12C2.75008 11.59 3.09008 11.25 3.50008 11.25L20.3301 11.25C20.7401 11.25 21.0801 11.59 21.0801 12C21.0801 12.41 20.7401 12.75 20.3301 12.75L3.50008 12.75C3.09008 12.75 2.75008 12.41 2.75008 12Z" fill="#FF5722"/>
</g>
</g>
</g>
</svg>
